<svg width="59" height="104" viewBox="0 0 59 104" fill="none" xmlns="http://www.w3.org/2000/svg">
<path d="M29.361 33.3575L28.2126 34.5176C25.3314 37.4241 18.1633 40.1448 12.7516 41.6856C7.17036 43.2745 2.19267 44.1631 1.68134 44.252L0.339539 44.4844L0.341489 45.8458C0.351687 57.8434 3.54569 73.3682 9.95868 85.1505C12.7946 90.3606 15.9563 94.6767 19.1286 97.8633C22.3009 101.05 25.4615 103.157 28.5583 103.746L28.861 103.803L29.1638 103.746C32.4095 103.125 35.6228 100.561 38.9177 96.963C42.2125 93.3647 45.505 88.6482 48.3376 83.4512C54.7196 71.7421 58.37 57.8704 58.3806 45.8458V44.4844L57.0388 44.252C56.5282 44.1633 51.5515 43.2745 45.9704 41.6856C40.5587 40.1448 33.3907 37.4241 30.5095 34.5176L29.361 33.3575Z" fill="#85BE19"/>
<path d="M28.2954 100.246C22.1449 98.1627 14.2463 88.3814 8.84382 76.1577C4.77936 66.9614 2.31119 56.6459 2.09545 47.9537L2.04266 45.827L2.83853 45.6834C5.53229 45.1976 9.79166 44.1945 13.0136 43.2872L15.0268 42.7202L14.0296 41.7758C12.8227 40.6327 9.85906 37.5048 8.66915 36.1181C6.58181 33.6856 6.16722 32.938 5.80059 30.9457C4.94475 26.295 3.63744 16.9875 3.13083 11.938C2.71484 7.7918 2.7025 7.15136 2.96571 3.36551C3.0944 1.51449 3.22145 0 3.24805 0C3.27464 0 3.75097 1.05728 4.30653 2.3495C7.05029 8.73139 8.98614 12.9125 14.1753 23.6644C16.1252 27.7047 17.4733 30.541 19.4468 34.7557C20.5376 37.0852 20.7233 37.5422 20.7714 38.0154C20.8156 38.4496 20.9162 38.7307 21.2479 39.348C21.4792 39.7782 21.7065 40.1178 21.7531 40.1025C21.8501 40.0708 21.8262 36.6594 21.707 33.528C21.6654 32.4337 21.5917 30.1668 21.5433 28.4904C21.3389 21.4151 21.272 19.7273 21.1022 17.3567C20.9465 15.1829 20.9188 13.9093 20.8886 7.53534L20.8538 0.211666L21.2687 0.67734C22.8353 2.43541 23.7341 3.48831 24.1673 4.07245C25.5818 5.98025 27.2619 9.19072 28.6111 12.5639C29.1275 13.8551 32.1472 22.7358 32.5935 24.276C32.8376 25.1183 32.8588 25.8056 32.6694 26.7371C32.4207 27.96 30.8116 34.2635 30.303 36.0075L30.1848 36.4125L30.9643 36.9892C34.4238 39.5485 40.3885 41.9503 48.3384 43.9853C50.5934 44.5625 54.0185 45.3317 55.7256 45.6444L56.7628 45.8344L56.7616 46.0947C56.7611 46.2379 56.7236 47.1932 56.6784 48.2177C56.3802 54.9795 55.07 61.8293 52.7431 68.7917C48.4342 81.6847 40.9885 93.359 33.8014 98.4908C33.443 98.7468 33.1731 98.9795 33.2017 99.0081C33.2303 99.0367 33.1922 99.06 33.1172 99.06C33.0422 99.06 32.5881 99.2675 32.1083 99.521C31.1102 100.048 29.8387 100.5 29.3606 100.498C29.1812 100.497 28.7019 100.383 28.2954 100.246ZM30.534 96.2066C35.1302 92.395 37.9211 87.2487 38.6116 81.3122C38.7806 79.8598 38.7314 76.626 38.5204 75.311C38.1794 73.1858 37.6473 71.3359 36.9863 69.9767L36.6155 69.2143L35.4073 69.2845C33.8316 69.3761 30.8985 69.297 29.678 69.1299C27.7634 68.8678 26.1494 68.3884 24.6318 67.631C23.2603 66.9465 22.0801 66.1247 22.4687 66.1247C22.513 66.1247 22.7893 66.292 23.0825 66.4964C23.841 67.0252 25.0891 67.6676 26.0456 68.0216C28.4732 68.9201 31.0877 69.2308 34.9611 69.0808C37.9766 68.9641 38.3566 68.8338 39.868 67.3982C40.3533 66.9373 41.0298 66.3717 41.3713 66.1412C42.8095 65.1708 43.2157 64.2565 43.0893 62.2747C43.0434 61.555 42.9769 61.2117 42.7942 60.7507C42.4342 59.8422 42.1645 58.9417 41.4358 56.2146C40.5901 53.0494 40.1924 51.7559 39.6684 50.4651C38.9595 48.7189 38.2417 47.6635 37.3541 47.0618C37.0624 46.864 36.3073 46.3169 35.676 45.8458C33.2981 44.0712 31.6002 43.2613 28.4797 42.4133C27.7603 42.2178 27.1604 42.0482 27.1465 42.0363C27.1326 42.0245 27.5588 40.4006 28.0934 38.4276C30.7301 28.6979 31.4221 25.8862 31.3202 25.3154C31.2395 24.8626 28.0187 15.2002 27.468 13.7584C26.6509 11.6194 25.5945 9.33888 24.5657 7.49301C24.1035 6.66388 22.8587 4.76768 22.509 4.36034L22.291 4.10635L22.3325 8.97468C22.359 12.0878 22.4208 14.4993 22.504 15.6634C22.7471 19.0644 22.8935 22.3848 22.9836 26.543C23.033 28.8248 23.0903 30.7679 23.1108 30.861C23.1314 30.9542 23.1862 32.6115 23.2325 34.544C23.2789 36.4766 23.3419 38.7667 23.3724 39.6332L23.4279 41.2087L24.1991 41.2616C25.05 41.32 25.6054 41.447 25.6054 41.5833C25.6054 41.6428 25.4596 41.6485 25.1609 41.6005C24.4442 41.4853 22.1509 41.5138 21.6433 41.6443C21.2487 41.7457 21.1887 41.7901 21.1439 42.0136C21.1106 42.1803 21.0731 42.228 21.0349 42.1524C21.0029 42.0889 20.6085 41.3472 20.1584 40.5041C19.4292 39.1381 19.3401 38.9237 19.3401 38.5366C19.3401 38.1515 19.1731 37.7441 17.8686 34.9473C16.2003 31.3705 14.5608 27.9253 12.0158 22.6484C8.6968 15.7668 6.47864 11.0456 5.01457 7.747C4.64254 6.9088 4.31738 6.20396 4.292 6.18067C4.20833 6.10391 4.34907 8.89925 4.52131 10.735C4.96186 15.4305 5.86687 22.1672 6.90088 28.448C7.49085 32.0316 7.49537 32.0488 8.07954 32.9212C9.27276 34.7032 13.075 38.8473 16.2391 41.8145L17.2445 42.7573L16.8864 43.1458C16.2369 43.8504 15.4643 45.7287 14.5522 48.8206C14.3445 49.5247 14.0446 50.382 13.8858 50.7256C12.9696 52.7088 12.6721 56.6454 13.3592 57.6941C13.4356 57.8107 13.4981 57.9232 13.4981 57.9441C13.4981 57.965 13.2513 58.1202 12.9497 58.2888C11.6101 59.038 9.64946 60.7225 8.46129 62.1454C7.80388 62.9326 6.96511 64.2201 6.72621 64.8087L6.54635 65.2519L7.02437 66.5984C9.70896 74.1613 13.4429 81.2978 17.6518 86.9104C20.903 91.2458 24.4801 94.5964 27.4041 96.0451C28.2506 96.4645 29.2596 96.8423 29.5604 96.8524C29.6754 96.8563 30.0511 96.607 30.534 96.2066ZM24.0105 56.2232C23.3268 55.9714 22.8193 55.6455 22.2928 55.12C21.458 54.2869 21.2053 53.5742 21.2038 52.0489L21.2026 51.054H20.6523H20.102V50.3236V49.5931L20.4541 49.6494C22.1993 49.9284 25.8129 52.6124 27.5085 54.889L27.7478 55.2103L27.4597 55.5078C27.3013 55.6714 26.925 55.9269 26.6236 56.0755C26.1403 56.3138 25.9803 56.3483 25.2689 56.3677C24.6365 56.3849 24.3648 56.3537 24.0105 56.2232Z" fill="#151515"/>
<path fill-rule="evenodd" clip-rule="evenodd" d="M20.8063 0.150452L20.8825 8.98639C20.9091 12.1123 20.9686 14.5124 21.0583 15.7676C21.2995 19.143 21.4451 22.4334 21.5348 26.5743V26.5802V26.588C21.6713 31.0033 21.797 35.9251 21.9235 39.6817V39.6837L21.9391 40.1544C21.8439 40.1611 21.7333 40.18 21.6364 40.1935C21.5757 40.0796 21.5287 39.9935 21.4645 39.8732C18.97 33.5221 15.6758 26.902 13.3219 22.0197V22.0177C10.0059 15.1421 7.7914 10.4294 6.33952 7.15826C6.15109 6.73374 5.97479 6.34407 5.83952 6.05084C5.77188 5.90423 5.71637 5.78235 5.66959 5.68561C5.64621 5.63724 5.62537 5.59721 5.60123 5.55084C5.58917 5.52766 5.57799 5.50357 5.55436 5.46295C5.54255 5.44264 5.52842 5.41984 5.49967 5.37701C5.4853 5.3556 5.4675 5.32995 5.43717 5.29108C5.40684 5.25221 5.27351 5.11175 5.27311 5.11139C5.27246 5.11079 4.83038 4.8343 4.82975 4.83405C4.82912 4.83379 4.06277 4.74606 4.06217 4.74615C4.06157 4.74625 3.40845 5.02502 3.40787 5.02545C3.40759 5.02567 3.22065 5.19702 3.22037 5.19733C3.2201 5.19763 3.13126 5.30043 3.09928 5.34576C2.84346 5.70846 2.8799 5.81083 2.861 5.90045C2.8232 6.0797 2.82562 6.13309 2.82194 6.20319C2.81457 6.34337 2.81574 6.46717 2.81803 6.62311C2.82262 6.93499 2.83929 7.34471 2.86295 7.81451C2.91026 8.75413 2.98871 9.92172 3.07779 10.8712C3.52355 15.6221 4.4314 22.3727 5.47037 28.6837C5.76539 30.4757 5.90527 31.3711 6.08951 32.0704C6.27375 32.7696 6.58109 33.2902 6.87467 33.7286C8.27593 35.8213 11.9837 39.8033 15.2067 42.8301L15.82 42.1622C14.6885 43.3897 14.0917 45.258 13.1618 48.4102C12.9709 49.0574 12.6351 49.9763 12.57 50.1172C11.9838 51.3862 11.689 52.9534 11.5758 54.4512C11.5192 55.2002 11.5139 55.9232 11.5797 56.586C11.6058 56.848 11.7544 57.0903 11.8043 57.338C10.2776 58.2843 8.5638 59.7601 7.34732 61.2169H7.34927C6.58223 62.1354 5.78906 63.262 5.38248 64.2637L4.99577 65.2169L5.65788 67.084C8.38805 74.7754 12.176 82.0241 16.4919 87.7794L16.5251 87.8262L16.5641 87.8692C20.0596 91.8402 23.5271 96.4982 29.1305 98.2364L29.8122 98.4493L30.3962 98.0372C35.8297 94.2008 39.3485 86.8671 40.0485 81.5001L40.0505 81.4903L40.0525 81.4805C40.2538 79.7505 40.2172 76.7294 39.9529 75.082C39.6407 73.1366 39.1148 71.5122 38.5017 70.0703C39.4154 69.7422 40.1001 69.1776 40.867 68.4492C41.2935 68.0441 42.0148 67.4564 42.1814 67.3437C43.0231 66.7758 43.7387 66.0842 44.1423 65.1758C44.546 64.2674 44.6073 63.2851 44.5369 62.1816C44.4872 61.4024 44.3715 60.795 44.1423 60.2168C43.8118 59.3829 43.5638 58.5577 42.8376 55.8399C41.988 52.6604 41.5662 51.2867 41.0114 49.92C40.2508 48.0464 39.4066 46.7012 38.1676 45.8614C37.9418 45.7083 37.161 45.1451 36.5426 44.6837C34.0808 42.8464 32.0889 41.8984 28.8981 41.0274C29.0618 40.407 29.2598 39.6702 29.4938 38.8067C30.813 33.9387 31.6458 30.8007 32.1423 28.7833C32.3905 27.7746 32.5545 27.0482 32.6559 26.5001C32.7573 25.952 32.8593 25.6856 32.7477 25.0606C32.7087 24.8415 32.694 24.8285 32.6618 24.7188C32.6296 24.6091 32.5886 24.4763 32.5387 24.3165C32.439 23.9968 32.3022 23.5733 32.1403 23.0743C31.8165 22.0763 31.388 20.7782 30.945 19.4493C30.059 16.7914 29.1463 14.0896 28.8219 13.2403C27.9788 11.033 26.9023 8.70795 25.8317 6.78717C25.5599 6.29967 25.1315 5.61979 24.7067 4.97272C24.2819 4.32565 23.9544 3.8183 23.609 3.41608L20.8063 0.150452ZM23.7907 9.26178C24.6119 10.8412 25.4603 12.5668 26.113 14.2755C26.3393 14.868 27.3127 17.7183 28.195 20.3653C28.6361 21.6888 29.0625 22.9827 29.3825 23.9688C29.5425 24.4619 29.6752 24.8787 29.7692 25.1797C29.8162 25.3303 29.8545 25.453 29.8786 25.5352C29.9027 25.6175 29.9212 25.7329 29.8922 25.5704C29.8316 25.2308 29.8864 25.529 29.8044 25.9727C29.7223 26.4164 29.5675 27.1081 29.3258 28.0899C28.8426 30.0535 28.0105 33.1872 26.693 38.0489C26.4695 38.874 26.2869 39.5622 26.1247 40.1758C25.8935 40.0651 25.724 40.0216 25.5446 39.9805C25.175 39.896 24.7741 39.8472 24.2985 39.8145L24.8317 39.8516L24.8219 39.584V39.5821C24.6962 35.8501 24.5699 30.9342 24.4332 26.5117V26.4981C24.3427 22.3298 24.1954 18.9829 23.9508 15.5606C23.8776 14.5362 23.8192 12.1618 23.7907 9.26178ZM6.44889 14.211C7.73389 16.9698 8.69481 19.0978 10.7106 23.2774H10.7086C13.0895 28.2157 16.3774 34.8258 18.8082 41.0333L18.8395 41.1114L18.8785 41.1876C19.1032 41.6085 19.3139 42.0031 19.4723 42.3008C19.6306 42.5986 19.7802 42.8848 19.7399 42.8048V42.8068C19.8202 42.9657 19.9016 43.2979 20.5504 43.5431C20.8748 43.6657 21.3469 43.6498 21.6578 43.5138C21.9687 43.3777 22.1308 43.1993 22.232 43.0704C22.2547 43.0415 22.232 43.0538 22.2516 43.0275C22.3276 43.0181 22.3017 43.0201 22.4 43.0138C22.6626 42.9968 22.9989 42.9848 23.3414 42.9806C24.0265 42.9721 24.8307 43.0152 24.9313 43.0314C25.126 43.0627 25.282 43.0906 25.5504 43.0802C25.6651 43.0758 25.842 43.0496 26.0777 42.963C26.136 43.0418 26.2086 43.1407 26.2086 43.1407C26.2192 43.1485 26.3803 43.2676 26.3805 43.2677C26.3807 43.2678 26.4519 43.3096 26.4762 43.3224C26.5249 43.3479 26.5513 43.3595 26.5738 43.3692C26.6189 43.3887 26.6414 43.3958 26.6598 43.4025C26.6965 43.4158 26.7147 43.4216 26.734 43.4278C26.7726 43.4403 26.8069 43.451 26.8473 43.463C26.928 43.487 27.0296 43.5157 27.1539 43.5509C27.4026 43.6212 27.7356 43.7138 28.0992 43.8126C31.1227 44.6342 32.526 45.3047 34.8082 47.0079C35.4524 47.4887 36.183 48.0193 36.5406 48.2618C37.0769 48.6254 37.6667 49.3911 38.3238 51.0099C38.817 52.2248 39.1929 53.4371 40.0348 56.588C40.766 59.3244 41.0574 60.3023 41.4469 61.2853C41.5832 61.6291 41.6001 61.7071 41.6422 62.3673C41.6982 63.2456 41.6193 63.7113 41.4918 63.9982C41.3644 64.285 41.1567 64.5371 40.5602 64.9396C40.043 65.2886 39.4125 65.8314 38.8688 66.3478C38.1412 67.0389 37.8844 67.2341 37.5074 67.3634C37.1305 67.4926 36.3951 67.5733 34.9059 67.631H34.9039C31.1331 67.777 28.7602 67.4809 26.5484 66.6622C25.7424 66.3639 24.51 65.7239 23.9117 65.3067C23.742 65.1885 23.5809 65.0837 23.4332 64.9942C23.3593 64.9495 23.2913 64.9099 23.2047 64.8653C23.1614 64.8431 23.1159 64.8191 23.0367 64.7872C22.9575 64.7553 22.9302 64.6739 22.4683 64.6739C22.3163 64.6739 22.106 64.6675 21.7652 64.838C21.4244 65.0084 20.995 65.5557 20.9508 66.0255C20.8623 66.9651 21.2331 67.0757 21.3629 67.2228C21.6224 67.5168 21.8099 67.635 22.0621 67.8107C22.5665 68.1619 23.2394 68.5563 23.984 68.9278C25.6504 69.7595 27.4405 70.287 29.482 70.5665C30.9509 70.7676 33.7637 70.833 35.4918 70.7325L35.7125 70.7208C36.2659 71.8885 36.7722 73.5638 37.0894 75.5411C37.2468 76.5217 37.3071 79.951 37.1715 81.1329C36.6233 85.3165 33.419 91.8259 29.2848 95.1309C25.1989 93.551 22.1588 89.8378 18.7946 86.0118C14.7005 80.5456 11.0251 73.5361 8.3903 66.1133L8.10319 65.3028C8.20765 65.0769 9.0383 63.7156 9.57389 63.0743C10.6199 61.8216 12.6004 60.1462 13.6579 59.5547C13.827 59.4602 13.9787 59.371 14.109 59.2891C14.1742 59.2482 14.2308 59.2114 14.3044 59.1583C14.3411 59.1317 14.379 59.105 14.4548 59.0372C14.4926 59.0033 14.5392 58.9647 14.6227 58.8614C14.6645 58.8097 14.7174 58.7426 14.7829 58.6172C14.8156 58.5545 14.8843 58.3696 14.8844 58.3692C14.8846 58.3688 14.9489 57.9437 14.9489 57.9434C14.9489 57.5795 14.8884 57.5259 14.8629 57.4532C14.8375 57.3805 14.8203 57.3413 14.8044 57.3067C14.7725 57.2375 14.7484 57.1938 14.7243 57.1505C14.6761 57.0638 14.628 56.984 14.5719 56.8985C14.6544 57.0243 14.5094 56.7312 14.4665 56.2989C14.4235 55.8666 14.42 55.2842 14.4665 54.67C14.5593 53.4416 14.8728 52.0483 15.2028 51.334C15.4553 50.7878 15.7185 49.9916 15.943 49.2305C16.8373 46.1989 17.7853 44.3107 17.9528 44.129L19.2848 42.6837L17.2301 40.7559C14.1346 37.8531 10.264 33.5776 9.28483 32.1153C8.99423 31.6813 9.00576 31.7555 8.8942 31.3321C8.78265 30.9087 8.62665 30.0045 8.3317 28.213C7.51364 23.2439 6.93582 18.4931 6.44889 14.211ZM20.0387 41.209C19.9391 41.4062 19.7426 41.6277 19.7223 41.7286C19.7209 41.7355 19.5826 41.7462 19.9508 41.2774C19.9657 41.2584 20.0203 41.2305 20.0387 41.209ZM18.652 47.8926V50.3243V52.504H19.7536V52.0508C19.7537 52.2171 19.8181 52.3436 19.8278 52.504C19.9164 53.9695 20.3463 55.2255 21.2692 56.1465C21.9133 56.7894 22.6634 57.2724 23.5094 57.584C24.019 57.7717 24.6169 57.8353 25.3083 57.8165C26.0606 57.7959 26.7179 57.6449 27.2653 57.3751C27.7286 57.1466 28.0697 56.9618 28.5016 56.5157L29.6481 55.334L28.6715 54.0235C27.692 52.7084 26.2938 51.4168 24.8649 50.3555C23.436 49.2942 22.1175 48.4461 20.6833 48.2169L18.652 47.8926ZM22.6813 52.4337C22.8757 52.5619 22.9415 52.5404 23.1344 52.6837C24.0196 53.3411 24.7297 54.1294 25.4294 54.8809C25.3603 54.8789 25.4077 54.9132 25.2301 54.918C24.6567 54.9336 24.7104 54.9366 24.5114 54.8633C23.9901 54.6713 23.7269 54.5019 23.318 54.0938H23.316C22.7668 53.5457 22.6979 53.2943 22.6813 52.4337Z" fill="#151515"/>
<path fill-rule="evenodd" clip-rule="evenodd" d="M38.6115 81.3122C38.7805 79.8598 38.7313 76.626 38.5203 75.311C38.1793 73.1858 37.6472 71.3359 36.9862 69.9767L36.6154 69.2143L35.4072 69.2845C33.8315 69.3761 30.8984 69.297 29.6779 69.1299C27.7633 68.8678 26.1493 68.3884 24.6317 67.631C23.2602 66.9465 22.08 66.1247 22.4686 66.1247C22.5129 66.1247 22.7892 66.292 23.0824 66.4964C23.8409 67.0252 25.089 67.6676 26.0455 68.0216C28.4731 68.9201 31.0876 69.2308 34.961 69.0808C37.9765 68.9641 38.3565 68.8338 39.8679 67.3982C40.3532 66.9373 41.0297 66.3717 41.3712 66.1412C42.8094 65.1708 43.2156 64.2565 43.0892 62.2747C43.0433 61.555 42.9768 61.2117 42.7941 60.7507C42.4341 59.8422 42.1644 58.9417 41.4357 56.2146C40.59 53.0494 40.1923 51.7559 39.6683 50.4651C38.9594 48.7189 38.2416 47.6635 37.354 47.0618C37.0623 46.864 36.3072 46.3169 35.6759 45.8458C33.298 44.0712 31.6001 43.2613 28.4796 42.4133C27.7602 42.2178 27.1603 42.0482 27.1464 42.0363C27.1325 42.0245 27.5587 40.4006 28.0933 38.4276C30.73 28.6979 31.422 25.8862 31.3201 25.3154C31.2394 24.8626 28.0186 15.2002 27.4679 13.7584C26.6508 11.6194 25.5944 9.33888 24.5656 7.49301C24.1034 6.66388 22.8586 4.76768 22.5089 4.36034L22.2909 4.10635L22.3324 8.97468C22.3589 12.0878 22.4207 14.4993 22.5039 15.6634C22.747 19.0644 22.8934 22.3848 22.9835 26.543C23.1202 30.964 23.2461 35.8868 23.3723 39.6332L23.4278 41.2087L24.199 41.2616C25.0499 41.32 25.6053 41.447 25.6053 41.5833C25.6053 41.6428 25.4595 41.6485 25.1608 41.6005C24.4441 41.4853 22.1508 41.5138 21.6432 41.6443C21.2486 41.7457 21.1886 41.7901 21.1438 42.0136C21.1105 42.1803 21.073 42.228 21.0348 42.1524C21.0028 42.0889 20.6084 41.3472 20.1583 40.5041C17.6933 34.2092 14.3895 27.5718 12.0157 22.6484C8.69678 15.7668 6.47862 11.0456 5.01455 7.747C4.64252 6.9088 4.31736 6.20396 4.29198 6.18067C4.20831 6.10391 4.34905 8.89925 4.52129 10.735C4.96184 15.4305 5.86685 22.1672 6.90086 28.448C7.49083 32.0316 7.49535 32.0488 8.07952 32.9212C9.27274 34.7032 13.0749 38.8473 16.239 41.8145L17.2444 42.7573L16.8863 43.1458C16.2368 43.8504 15.4642 45.7287 14.5521 48.8206C14.3444 49.5247 14.0445 50.382 13.8857 50.7256C12.9695 52.7088 12.672 56.6454 13.3591 57.6941C13.4355 57.8107 13.498 57.9232 13.498 57.9441C13.498 57.965 13.2512 58.1202 12.9496 58.2888C11.61 59.038 9.64944 60.7225 8.46127 62.1454C7.80386 62.9326 6.96509 64.2201 6.72619 64.8087L6.54633 65.2519L7.02435 66.5984C9.70894 74.1613 13.4428 81.2978 17.6517 86.9104C21.1931 90.9335 24.5113 95.2861 29.5603 96.8524C34.4888 93.3727 37.9758 86.1862 38.6115 81.3122ZM22.2927 55.12C22.8192 55.6455 23.3267 55.9714 24.0104 56.2232C24.3647 56.3537 24.6364 56.3849 25.2688 56.3677C25.9802 56.3483 26.1402 56.3138 26.6235 56.0755C26.9249 55.9269 27.3012 55.6714 27.4596 55.5078L27.7477 55.2103L27.5084 54.889C25.8128 52.6124 22.1992 49.9284 20.454 49.6494L20.1019 49.5931V50.3236V51.054H20.6522H21.2025L21.2037 52.0489C21.2052 53.5742 21.4579 54.2869 22.2927 55.12Z" fill="#F2F2F2"/>
</svg>
